<svg width="512" height="512" viewBox="0 0 512 512" fill="none" xmlns="http://www.w3.org/2000/svg">
  <!-- Background circle with gradient -->
  <defs>
    <linearGradient id="bgGradient" x1="0%" y1="0%" x2="100%" y2="100%">
      <stop offset="0%" style="stop-color:#0052FF;stop-opacity:1" />
      <stop offset="100%" style="stop-color:#0041CC;stop-opacity:1" />
    </linearGradient>
    <linearGradient id="iconGradient" x1="0%" y1="0%" x2="100%" y2="100%">
      <stop offset="0%" style="stop-color:#FFFFFF;stop-opacity:1" />
      <stop offset="100%" style="stop-color:#E0E7FF;stop-opacity:1" />
    </linearGradient>
  </defs>
  
  <!-- Background -->
  <rect width="512" height="512" rx="110" fill="url(#bgGradient)"/>
  
  <!-- Letter B for Baselifestyle -->
  <path d="M160 140 L160 372 L280 372 C320 372 350 342 350 302 C350 275 335 252 312 242 C325 232 335 215 335 195 C335 155 305 140 265 140 L160 140 Z M220 180 L265 180 C280 180 290 190 290 205 C290 220 280 230 265 230 L220 230 L220 180 Z M220 270 L280 270 C295 270 305 280 305 295 C305 310 295 320 280 320 L220 320 L220 270 Z" fill="url(#iconGradient)"/>
  
  <!-- Small circle accent (representing community/social) -->
  <circle cx="380" cy="180" r="35" fill="#FFD700" opacity="0.9"/>
  <circle cx="390" cy="200" r="25" fill="#FFA500" opacity="0.8"/>
</svg>

